<?xml version="1.0" encoding="utf-8"?><!DOCTYPE svg PUBLIC "-//W3C//DTD SVG 1.1//EN" "http://www.w3.org/Graphics/SVG/1.1/DTD/svg11.dtd"><svg version="1.1" xmlns="http://www.w3.org/2000/svg" xmlns:xlink="http://www.w3.org/1999/xlink" width="48" height="48" viewBox="0 0 48 48" data-tags="bird"><g fill="#444" transform="scale(0.046875 0.046875)"><path d="M938.858 384h63.786c5.546 0 11.094-2.134 15.36-6.186 8.32-8.32 8.32-21.974 0-30.294-5.782-5.546-77.226-91.52-77.226-91.52s71.466-85.974 77.226-91.52c8.32-8.32 8.32-21.974 0-30.294-4.266-4.052-9.812-6.186-15.358-6.186h-102.634c-46.698-76.8-131.414-128-227.84-128-147.2 0-266.666 119.466-266.666 266.666 0 88.32-71.68 160-160 160h-0.64l-202.434 0c-23.488 0-42.666 19.2-42.666 42.666l0.214 5.76c18.986 185.6 148.886 339.2 320.214 396.586v98.986c0 29.44 23.894 53.334 53.334 53.334s53.334-23.894 53.334-53.334v-76.586c14.080 1.28 28.374 1.92 42.666 1.92s28.586-0.64 42.666-1.92v76.586c0 29.44 23.894 53.334 53.334 53.334s53.334-23.894 53.334-53.334v-98.986c186.026-62.314 320-238.080 320-445.014l-0.004-42.664zM682.858 181.334c0-29.44 23.894-53.334 53.334-53.334s53.334 23.894 53.334 53.334-23.894 53.334-53.334 53.334-53.334-23.894-53.334-53.334zM517.312 496.214c30.080 65.302 18.326 145.088-35.414 198.826-52.906 53.12-131.414 65.302-196.054 36.48l-6.826-3.626c-13.654-7.254-22.806-21.546-22.806-37.974 0-12.586 5.334-23.894 13.866-31.786 4.246-3.84 176.426-176.214 176.426-176.214 16.854-16.854 44.16-16.854 60.8 0 2.56 2.56 4.906 5.334 6.634 8.32l3.374 5.974z" /></g></svg>